<svg id="Layer_1" data-name="Layer 1" xmlns="http://www.w3.org/2000/svg" viewBox="0 0 836.8 591.68"><rect width="836.8" height="591.68" fill="#231d1f"/><rect width="836.8" height="591.68" fill="#231d1f"/><path d="M579.64,299.55q4.64-17.88,9.27-35.78c2-7.85,4.1-15.69,6-23.56.46-1.9,1.15-2.73,3.3-2.7,8.79.14,17.58.17,26.36,0,2.69-.06,3,1,3,3.28q-.1,47.06-.06,94.1c0,16.58-.05,33.15.06,49.72,0,2.52-.7,3.21-3.18,3.16-7.67-.15-15.35-.16-23,0-2.54.05-3.17-.73-3.16-3.2.09-20.91.06-41.82.05-62.74a4.41,4.41,0,0,0-.68-2.62c-6,18.95-12.06,37.89-18.35,57.68l-18.19-57.84-.76.11c0,3.72,0,7.43,0,11.14,0,18,0,36,.06,54.05,0,2.5-.5,3.49-3.27,3.42-7.67-.2-15.35-.15-23,0-2.24,0-2.81-.71-2.8-2.85q.07-72.24,0-144.49c0-2.08.44-2.93,2.74-2.9q13.18.19,26.36,0c2.22,0,2.78.92,3.25,2.78,4.81,18.83,9.71,37.64,14.58,56.45.25,1,.53,1.92.79,2.87Z" transform="translate(0 0)" fill="#fff"/><path d="M238.59,312.62c0-23.91,0-47.82,0-71.73,0-2.52.52-3.41,3.27-3.39,18,.14,36,0,54,.09,13.07,0,19.93,6.62,20,19.62.15,23,.05,46,0,69.06,0,5.85-3.91,13-11.33,13.4-2.63.13-1.72,1.61-1.28,2.94q6.82,20.73,13.66,41.45c1.21,3.66,1.22,3.66-2.73,3.66-8,0-16-.11-24,.06-2.47.05-3.46-.79-4.14-3.1-4.15-14.06-8.45-28.07-12.71-42.1-.31-1-.26-2.35-1.62-2.67-2.51-.59-3.23.5-3.21,3,.11,13.56-.07,27.13.15,40.7.06,3.41-.86,4.29-4.22,4.17-7.33-.28-14.68-.28-22,0-3.39.13-4-1-3.94-4.12C238.65,360,238.59,336.31,238.59,312.62Zm30-22.73c0,7.67.07,15.34-.05,23,0,2.19.65,2.91,2.84,2.81,3.77-.16,7.55-.08,11.33,0,2.37,0,3.47-1.07,3.47-3.42q0-22.33,0-44.67c0-2.51-1-3.68-3.57-3.62-3.55.08-7.12.15-10.66,0-2.53-.13-3.49.56-3.42,3.3C268.73,274.78,268.6,282.34,268.61,289.89Z" transform="translate(0 0)" fill="#fff"/><path d="M429.49,312.08c0,23.91,0,47.83.05,71.75,0,2.52-.52,3.42-3.27,3.41q-35.53-.18-71.08,0c-2.75,0-3.56-.72-3.55-3.52q.12-71.58,0-143.17c0-2.57.68-3.43,3.34-3.42q35.72.15,71.42,0c2.55,0,3.14.73,3.13,3.2C429.45,264.24,429.49,288.16,429.49,312.08Zm-38.6,49.53c-3.69,2.69-8,4.23-12,6.28-5.69,2.91-11.48,5.65-17.55,8.62,0-4.31,0-8.08,0-11.85,0-1.17.36-2.54-1.65-2.43s-.91,1.54-.93,2.22c-.12,4.34.08,8.68-.11,13-.1,2.47.87,2.91,3.09,2.9q28.71-.12,57.4,0c2.52,0,3.48-.56,3.48-3.28q-.12-64.89,0-129.8c0-2.45-.68-3.21-3.2-3.19q-28.86.15-57.72,0c-2.27,0-3.05.56-3,2.94.07,34.91,0,69.82,0,105.14.59-1.05.06-2.3.88-2.4,2.72-.33,1.77-2.33,1.78-3.74q.33-41,.56-82.06c0-5.37,0-10.74,0-16.71,11.85,5.87,23,11.4,34.11,16.86,1.47.72,1.35,1.82,1.34,3q-.29,44.71-.52,89.41c0,2-.61,3.17-2.55,3.59a6.53,6.53,0,0,0,1.84-4.41q.18-43.84.54-87.69a3.7,3.7,0,0,0-2.31-3.9c-9.39-4.54-18.71-9.22-28.09-13.78-1-.49-2-1.47-3.62-1,0,10.29.05,20.62,0,30.95q-.25,45.84-.62,91.7c0,2.4.26,3.23,2.83,1.88q8.54-4.5,17.31-8.53C385,364.11,387.6,362,390.89,361.61Z" transform="translate(0 0)" fill="#fff"/><path d="M441,312.63c0-23.81.05-47.61-.07-71.41,0-2.89.66-3.74,3.67-3.72q35.37.19,70.74,0c3,0,3.62.89,3.61,3.73q-.13,71.41,0,142.82c0,2.82-.55,3.77-3.61,3.75q-35.37-.21-70.75,0c-3,0-3.66-.9-3.65-3.75C441,360.23,441,336.43,441,312.63Zm70.74,0c0-21.58,0-43.15,0-64.72,0-2.31-.38-3.29-3-3.27q-28.86.21-57.71,0c-2.42,0-3,.75-3,3q.09,65.05,0,130.11c0,2.57.79,3.12,3.23,3.11q28.51-.13,57,0c2.82,0,3.49-.87,3.48-3.6C511.68,355.74,511.73,334.17,511.73,312.6Z" transform="translate(0 0)" fill="#fff"/><path d="M391.82,312.31c.26-.77,0-2,1.29-1.92s1.29,1.39,1.26,2.32-.14,2.3-1.48,2.08C391.74,314.6,391.87,313.29,391.82,312.31Z" transform="translate(0 0)" fill="#fff"/><path d="M417.86,312v42.7c0,4.25,0,4.26-4.4,4.26-3.89,0-7.79-.19-11.67.06-2.85.19-2.94-1.24-2.93-3.4q.08-35,0-70.05c0-5.89.09-11.78,0-17.67,0-2.07.38-3,2.71-2.93,4.44.16,8.9.16,13.34,0,2.33-.09,3,.65,3,3-.11,14.68,0,29.35,0,44Z" transform="translate(0 0)" fill="#fff"/><path d="M368.86,248.06h13.56c10.76,0,21.53.07,32.3-.06,2.47,0,3.35.63,3.19,3.17-.21,3.43-.1,6.88,0,10.32,0,1.54-.47,2.18-2.1,2.16-5.55-.06-11.1,0-16.65,0a5.2,5.2,0,0,1-2.21-.56q-14.1-7.08-28.18-14.22Z" transform="translate(0 0)" fill="#fff"/><path d="M368.56,375.25c9.75-4.94,19.16-10.13,29-14.43,3.09-1.36,7.23-.49,10.88-.39,3.06.08,7-1.4,8.93.66,1.77,1.88.48,5.73.51,8.71.07,6.08,0,6.08-6.17,6.08q-19.83,0-39.68,0C371,375.87,369.83,376.25,368.56,375.25Z" transform="translate(0 0)" fill="#fff"/><path d="M359.37,267.12c0-1.66,0-3.32,0-5,0-.58.27-1.16.92-1.15a1,1,0,0,1,1,1.14q0,5.13,0,10.26c0,.6-.33,1.15-1,1.13-.87,0-1-.76-1-1.44,0-1.66,0-3.32,0-5Z" transform="translate(0 0)" fill="#fff"/><path d="M450.17,312.28c0-20.58,0-41.16-.06-61.74,0-2.6.43-3.67,3.38-3.65q26.53.21,53.06,0c2.61,0,3.11.85,3.11,3.24q-.11,62.57,0,125.14c0,2.56-.76,3.12-3.19,3.11q-26.7-.15-53.39,0c-2.41,0-2.95-.77-2.95-3,.08-21,.05-42.05.05-63.07Zm2.68.35h0q0,30,0,60.05c0,2,0,3.29,2.73,3.28q24.36-.18,48.71,0c2.25,0,2.77-.77,2.77-2.88q-.07-60.37,0-120.76c0-2.42-.8-2.93-3-2.92q-23.85.13-47.7,0c-2.81,0-3.5.82-3.49,3.56C452.91,272.82,452.85,292.73,452.85,312.63Z" transform="translate(0 0)" fill="#fff"/><path d="M457.31,319.68a46.28,46.28,0,0,0-.49-6.94c-.45-2.69,1.93-4.45,4.12-3,1.85,1.25,3.67,1.24,5.66,1.25.79,0,2-.32,2.11,1s-1,1.2-1.88,1.32c-4.76.68-4.76.68-4.78,5.51,0,1.77,0,3.55,0,5.32s-1,2.33-2.62,2.26-2.11-1-2.11-2.38Zm.79.11h0c0,1.23,0,2.45,0,3.67s.12,2.09,1.49,2.13,1.61-1,1.63-2c0-2.22,0-4.43,0-6.65,0-1.12-.28-1.89-1.71-1.83s-1.43.73-1.42,1.71S458.1,318.79,458.1,319.79Z" transform="translate(0 0)" fill="#fff"/><text transform="translate(329.16 433.23)" font-size="29.7" fill="#fff" font-family="DimaPlatinum">“To Success”</text><text transform="translate(149.25 229.6) scale(0.93 1)" font-size="81.12" fill="#fff" font-family="AesteraPersonaluse, Aestera - Personal use">Graphic </text></svg>